# xmcd CD database file
#
# Track frame offsets:
#	150
#	13981
#	31986
#	50435
#	70241
#	88571
#	115731
#	127282
#	142654
#	160366
#	183214
#	202117
#	223630
#	237232
#	256380
#
# Disc length: 3634 seconds
#
# Revision: 1
# Processed by: cddbd v1.4PL0 Copyright (c) Steve Scherf et al.
# Submitted via: CDex 1.40Release
#
DISCID=d80e300f
DTITLE=Cayouche - Last Call
DYEAR=2003
DGENRE=Country
TTITLE0=Mon bicycle, ma musique
TTITLE1=Au camp
TTITLE2=Une place au chaud
TTITLE3=L'auberge du Quai de l'horloge
TTITLE4=La 6 49
TTITLE5=Pills à nerfs
TTITLE6=Red haired Boy
TTITLE7=Pas d'icitte, pas d'ailleurs
TTITLE8=Grand-Père Jos
TTITLE9=Le frigidaire de mon chum
TTITLE10=Le Blues à Cay
TTITLE11=Viens faire un tour
TTITLE12=Laurie
TTITLE13=Last Call
TTITLE14=à quarante 12
EXTD=YEAR: 2003 ID3G: 2
EXTT0=
EXTT1=
EXTT2=
EXTT3=
EXTT4=
EXTT5=
EXTT6=
EXTT7=
EXTT8=
EXTT9=
EXTT10=
EXTT11=
EXTT12=
EXTT13=
EXTT14=
PLAYORDER=
